<?xml version="1.0" standalone="no"?>
<!DOCTYPE svg PUBLIC "-//W3C//DTD SVG 20010904//EN"
 "http://www.w3.org/TR/2001/REC-SVG-20010904/DTD/svg10.dtd">
<svg version="1.0" xmlns="http://www.w3.org/2000/svg"
 width="512.000000pt" height="512.000000pt" viewBox="0 0 512.000000 512.000000"
 preserveAspectRatio="xMidYMid meet">

<g transform="translate(0.000000,512.000000) scale(0.100000,-0.100000)"
fill="#000000" stroke="none">
<path d="M1675 4985 c-565 -67 -1015 -336 -1308 -780 -162 -246 -283 -590
-332 -940 -32 -234 -35 -389 -35 -1762 l0 -1383 1110 0 1110 0 0 1110 0 1110
-515 0 -515 0 0 285 c0 366 19 548 76 721 103 316 298 463 617 464 l67 0 0
595 0 595 -82 -1 c-46 -1 -132 -7 -193 -14z"/>
<path d="M4578 4985 c-459 -56 -818 -229 -1110 -534 -333 -347 -515 -822 -558
-1456 -6 -89 -10 -703 -10 -1512 l0 -1363 1110 0 1110 0 0 1110 0 1110 -515 0
-515 0 0 263 c0 378 20 564 82 752 41 126 90 208 174 293 108 108 207 148 397
159 l107 6 0 593 0 594 -82 -1 c-46 -1 -131 -7 -190 -14z"/>
</g>
</svg>
